<?xml version="1.0" encoding="UTF-8"?>
<svg id="Camada_2" xmlns="http://www.w3.org/2000/svg" version="1.1" xmlns:xlink="http://www.w3.org/1999/xlink" viewBox="0 0 345.71 393.1">
  <!-- Generator: Adobe Illustrator 30.3.0, SVG Export Plug-In . SVG Version: 2.1.3 Build 182)  -->
  <defs>
    <style>
      .st0 {
        fill: url(#Gradiente_sem_nome_2);
      }

      .st1 {
        fill: url(#Gradiente_sem_nome);
      }

      .st2 {
        fill: url(#Gradiente_sem_nome_4);
      }

      .st3 {
        fill: url(#Gradiente_sem_nome_3);
      }
    </style>
    <linearGradient id="Gradiente_sem_nome" data-name="Gradiente sem nome" x1="56.52" y1="207.19" x2="290.26" y2="207.19" gradientTransform="translate(0 393.89) scale(1 -1)" gradientUnits="userSpaceOnUse">
      <stop offset="0" stop-color="#f48e63"/>
      <stop offset="1" stop-color="#f948a1"/>
    </linearGradient>
    <linearGradient id="Gradiente_sem_nome_2" data-name="Gradiente sem nome 2" x1="56.3" y1="167.24" x2="209" y2="167.24" gradientTransform="translate(0 393.89) scale(1 -1)" gradientUnits="userSpaceOnUse">
      <stop offset="0" stop-color="#f48e63"/>
      <stop offset="1" stop-color="#f948a1"/>
    </linearGradient>
    <linearGradient id="Gradiente_sem_nome_3" data-name="Gradiente sem nome 3" x1="55.01" y1="124.36" x2="123.18" y2="124.36" gradientTransform="translate(0 393.89) scale(1 -1)" gradientUnits="userSpaceOnUse">
      <stop offset="0" stop-color="#f48e63"/>
      <stop offset="1" stop-color="#f948a1"/>
    </linearGradient>
    <linearGradient id="Gradiente_sem_nome_4" data-name="Gradiente sem nome 4" x1="0" y1="197.34" x2="345.71" y2="197.34" gradientTransform="translate(0 393.89) scale(1 -1)" gradientUnits="userSpaceOnUse">
      <stop offset="0" stop-color="#f48e63"/>
      <stop offset="1" stop-color="#f948a1"/>
    </linearGradient>
  </defs>
  <path class="st1" d="M273.51,209.97c-34.42-83.55-115.78-137.84-205.89-139.69-6-.12-11.12,2.02-11.1,9.22l.06,29.79c0,5.26,3.97,8.35,9.05,8.34,68.08-.11,129.91,38.01,159.29,99.47,11.69,24.46,17.07,50.86,17.75,78.55h0c.11,4.65,3,7.49,7.02,7.48l34.08-.05c4.64,0,6.66-4.46,6.49-8.8-1.11-29-5.69-57.5-16.74-84.31h0Z"/>
  <path class="st0" d="M144.13,172.88c-23.56-14.75-49.57-22.34-77.44-22.96-4.64-.1-10.07,2.22-10.12,7.42l-.27,31.06c-.04,4.75,3.44,9.1,8.63,8.92,29.96-1.03,57.47,11.92,75.96,35.98,13.53,17.6,19.36,39.69,19.35,62.01,0,4.62,2.98,8.11,8.07,8.08h0l31.88-.19c3.18-.02,5.77-1.11,7.22-2.83,2.17-2.58,1.53-5.02,1.4-8.09-1.97-49.46-22.32-92.87-64.68-119.4Z"/>
  <path class="st3" d="M123.13,267.82c-.68-12.83-8.34-22.75-17.88-28.04-10.98-6.09-23.89-6-34.3.71-14.3,9.22-19.83,27.34-13.09,42.74,6.47,14.79,22.9,23.49,39.23,19.55,15.34-3.7,26.96-17.53,26.04-34.97h0Z"/>
  <path class="st2" d="M345.69,169.54V11.75c-.02-5.92-4.81-11.57-11.12-11.58L232.77,0c-23.97,1.36-42.66,12.41-59.78,26.71C156.44,13.38,138.05.69,116.62.58L11.73.02C6.77,0,.11,3.97.1,9.37l-.05,160.17-.05,177.32c0,7.06,5.72,12.79,12.79,12.79h98.86c7.89-.02,14.78,2.18,21.82,5.08,13.22,5.61,24.15,14.4,33.59,25.14,1.76,2,3.85,3.34,6.18,3.22,1.9-.1,4.05-1.09,5.51-2.83,6.87-8.14,14.51-14.69,23.55-20.42,9.28-5.41,19.18-10.02,30.89-10.04l99.75-.13c7.06,0,12.77-5.73,12.77-12.79v-177.34h-.02ZM232.77,335.92c-23.97,1.36-42.66,12.41-59.78,26.71-16.54-13.34-34.93-26.02-56.36-26.14l-93.26-.49V23.76h.01l88.26-.04c7.89,0,14.78,2.19,21.82,5.1,13.22,5.61,24.15,14.4,33.59,25.14,1.76,2,3.85,3.34,6.18,3.22,1.9-.1,4.05-1.09,5.51-2.83,6.87-8.14,14.51-14.69,23.55-20.42,9.28-5.41,19.18-10.02,30.89-10.04l89.44-.17-.13,74.78v.02l-.12,70.98h.12v.05h.01v166.52l-89.73-.15h0Z"/>
</svg>