<?xml version="1.0" encoding="UTF-8"?>
<svg id="Camada_1" xmlns="http://www.w3.org/2000/svg" version="1.1" viewBox="0 0 512 416">
  <!-- Generator: Adobe Illustrator 30.3.0, SVG Export Plug-In . SVG Version: 2.1.3 Build 182)  -->
  <defs>
    <style>
      .st0 {
        fill: #fff;
      }

      .st1 {
        fill: #ff5a16;
      }
    </style>
  </defs>
  <path class="st0" d="M199.41,410.98c-19.57-.02-38.91-3.02-59.13-9.19-36.44-11.12-67.87-33.05-90.87-63.42C22.33,302.59,7.95,260.43,4.16,205.67c-1.7-24.58-2.2-47.29-1.52-69.44.53-17.25,4.08-34.16,10.55-50.26C30.03,44.08,67.5,15.68,113.44,10c20.64-2.55,39.47-3.9,57.57-4.12l70.92-.88,76.29.61c21.67.17,42.61,1.6,64.01,4.35,42.57,5.47,78.36,24.83,100.77,54.52,18.49,24.49,27.44,54.55,26.61,89.35.82,66.1-42.93,121.36-104.64,135.85-10.22,24.59-24.82,46.8-42.81,64.98-23.29,23.53-52.5,40.5-84.47,49.08-18.33,4.89-35.67,7.27-53.05,7.27l-25.22-.02ZM202.43,101.47c-13.6,0-27.81.46-44.72,1.46-11.76.69-21.72,1.75-31.33,3.33-20.08,3.31-23.19,12.32-24.52,16.17-1.95,5.66-2.92,10.99-3.04,16.78-.42,19.64.02,38.48,1.36,57.58,2.36,33.75,9.13,58.15,21.95,79.11,9.07,14.84,22.89,25.89,39.95,31.97,12.66,4.51,24.74,6.71,36.92,6.72l28.02.03c9.26,0,18.47-1.4,29.09-4.4,17.02-4.81,31.8-14.65,42.75-28.44,9.82-12.36,16.88-26.18,21.01-41.08l10.17-42.48,42.52-.17c14.84-.46,28.55-8.93,35.84-22.18,3.52-6.4,5.11-13.51,5-22.38-.1-8.22-.43-13.98-1.82-19.16-1.78-6.61-7.18-26.74-54.92-30.44-19.84-1.54-35.35-2.23-50.27-2.26l-103.96-.18Z"/>
  <path d="M269.9,374.76c-15.16,4.05-29.97,6.25-45.39,6.24l-25.07-.02c-17.24-.01-33.95-2.87-50.4-7.89-30.3-9.25-56.59-27.6-75.71-52.84-26.29-34.71-36.26-73.54-39.24-116.65-1.54-22.29-2.15-44.11-1.46-66.45.43-13.96,3.26-27.2,8.4-39.99,13.07-32.5,41.42-53.1,76.09-57.38,18.19-2.25,35.91-3.67,54.26-3.9l70.61-.87,75.98.61c20.44.16,40.22,1.51,60.43,4.1,31.24,4.01,61.45,17.41,80.65,42.84,15.6,20.67,21.25,45.28,20.54,71.11.97,56.92-39.7,104.15-96.77,109.27-17.15,54.17-57.2,96.87-112.92,111.83ZM264.27,339.1c23.23-6.57,43.18-19.89,58.08-38.65,12.27-15.45,21.38-33.22,26.58-52.27l4.8-20.04,19.3-.08c25.84-.63,49.27-15.2,61.66-37.72,6.37-11.59,8.87-24.03,8.71-37.21-.11-9.16-.48-17.74-2.85-26.56-10.03-37.37-45.92-49.81-81.57-52.57-17.65-1.37-34.73-2.32-52.53-2.35l-102.9-.18c-16.15-.03-31.59.57-47.58,1.51-11.72.69-22.91,1.78-34.44,3.68-22.07,3.63-40.51,14.25-48,35.99-2.9,8.41-4.48,16.86-4.67,25.91-.44,20.24,0,40.1,1.42,60.32,2.31,33.13,8.86,64.19,26.28,92.68,12.85,21,32.29,36.31,55.47,44.57,15.15,5.4,30.78,8.44,46.96,8.46l28.01.03c12.75.01,24.77-1.99,37.29-5.54Z"/>
  <path class="st0" d="M264.27,339.1c-12.52,3.54-24.54,5.55-37.29,5.54l-28.01-.03c-16.18-.02-31.81-3.06-46.96-8.46-23.18-8.26-42.63-23.57-55.47-44.57-17.42-28.48-23.97-59.54-26.28-92.68-1.41-20.22-1.86-40.08-1.42-60.32.19-9.05,1.78-17.5,4.67-25.91,7.5-21.75,25.94-32.36,48-35.99,11.53-1.9,22.72-2.99,34.44-3.68,16-.94,31.43-1.54,47.58-1.51l102.9.18c17.8.03,34.88.98,52.53,2.35,35.65,2.76,71.54,15.2,81.57,52.57,2.37,8.82,2.73,17.4,2.85,26.56.17,13.19-2.34,25.63-8.71,37.21-12.39,22.52-35.82,37.09-61.66,37.72l-19.3.08-4.8,20.04c-5.2,19.05-14.3,36.81-26.58,52.27-14.89,18.75-34.85,32.07-58.08,38.65ZM384.18,185.57c9.12-3.67,15.4-11,18.04-20.26s2.57-18.92-.24-28.12c-2.97-9.71-9.97-17.16-19.51-20.55-6.43-2.29-13.07-3.29-19.91-2.39-4.1.54-8.66,3.88-8.66,8.39v57.48c0,4.49,4.48,7.93,8.63,8.45,7.41.92,14.58-.16,21.65-3ZM301.05,222.13c15.38-24.08,20.73-54.15,4.98-78.98-10.22-16.12-27.42-25.66-46.54-25.87-19.12-.21-33.24,9.22-44.19,24.17l-6.42-8.2c-9.46-10.43-22.29-15.88-36.37-15.98-21.14-.14-39.92,11.15-49.53,29.96-12.72,24.87-6.55,53.61,8.51,76.42,9.41,14.25,21.23,26.28,34.9,36.58,11.74,8.84,23.72,16.69,36.4,24.02,8.98,5.2,19.62,4.23,28.21-1.1,9.98-6.18,19.49-12.16,28.95-19.05,15.5-11.29,30.81-25.86,41.11-41.98Z"/>
  <path class="st1" d="M301.05,222.13c-10.3,16.12-25.61,30.7-41.11,41.98-9.46,6.89-18.98,12.87-28.95,19.05-8.59,5.33-19.23,6.29-28.21,1.1-12.68-7.34-24.66-15.18-36.4-24.02-13.67-10.3-25.49-22.32-34.9-36.58-15.06-22.82-21.22-51.55-8.51-76.42,9.62-18.81,28.39-30.1,49.53-29.96,14.08.1,26.92,5.55,36.37,15.98l6.42,8.2c10.94-14.95,25.07-24.38,44.19-24.17,19.12.21,36.32,9.75,46.54,25.87,15.75,24.84,10.4,54.9-4.98,78.98Z"/>
  <path d="M384.18,185.57c-7.07,2.85-14.24,3.93-21.65,3-4.15-.52-8.63-3.96-8.63-8.45v-57.48c0-4.51,4.58-7.86,8.67-8.39,6.84-.89,13.48.11,19.91,2.39,9.53,3.39,16.54,10.84,19.51,20.55,2.81,9.2,2.87,18.87.24,28.12s-8.93,16.59-18.04,20.26Z"/>
</svg>